<?xml version="1.0" encoding="utf-8"?><svg xmlns="http://www.w3.org/2000/svg" xmlns:xlink="http://www.w3.org/1999/xlink"><symbol viewBox="0 0 384 384" id="001-call" xmlns="http://www.w3.org/2000/svg"><path d="M353.188 252.052c-23.51 0-46.594-3.677-68.469-10.906-10.906-3.719-23.323-.833-30.438 6.417l-43.177 32.594c-50.073-26.729-80.917-57.563-107.281-107.26l31.635-42.052c8.219-8.208 11.167-20.198 7.635-31.448-7.26-21.99-10.948-45.063-10.948-68.583C132.146 13.823 118.323 0 101.333 0H30.812C13.823 0 0 13.823 0 30.812 0 225.563 158.438 384 353.188 384c16.99 0 30.813-13.823 30.813-30.813v-70.323c-.001-16.989-13.824-30.812-30.813-30.812zm9.479 101.136c0 5.229-4.25 9.479-9.479 9.479-182.99 0-331.854-148.865-331.854-331.854 0-5.229 4.25-9.479 9.479-9.479h70.521c5.229 0 9.479 4.25 9.479 9.479 0 25.802 4.052 51.125 11.979 75.115 1.104 3.542.208 7.208-3.375 10.938L82.75 165.427a10.674 10.674 0 0 0-1 11.26c29.927 58.823 66.292 95.188 125.531 125.542 3.604 1.885 8.021 1.49 11.292-.979l49.677-37.635a9.414 9.414 0 0 1 9.667-2.25c24.156 7.979 49.479 12.021 75.271 12.021 5.229 0 9.479 4.25 9.479 9.479v70.323z"/></symbol><symbol viewBox="0 0 512 512" id="002-at" xmlns="http://www.w3.org/2000/svg"><path d="M226.735 1.636C111.259 14.518 17.472 106.202 2.285 221.396c-21.518 163.24 111.938 302.116 273.589 289.849 59.464-4.513 115.124-31.086 158.736-71.759l3.746-3.492c4.309-4.018 4.544-10.768.526-15.076l-14.555-15.607c-4.018-4.309-10.767-4.544-15.076-.526l-7.803 7.277c-48.51 45.232-115.104 65.582-182.284 54.141-95.215-16.216-168.411-97.052-175.846-193.352-9.831-127.343 92.889-233.758 219.006-230.093 116.288 3.381 207.009 102.616 207.009 218.953v15.622c0 24.934-21.486 44.932-46.921 42.46C400.246 317.637 384 297.714 384 275.442v-94.108c0-5.892-4.776-10.667-10.667-10.667H352c-4.283 0-7.921 2.56-9.618 6.203-21.465-23.413-52.19-38.203-86.382-38.203-64.698 0-117.333 52.635-117.333 117.333S191.302 373.334 256 373.334c40.755 0 76.691-20.909 97.732-52.54 15.842 26.475 45.276 43.922 78.78 41.677 45.303-3.035 79.488-42.746 79.488-88.15V256C512 105.202 380.931-15.566 226.735 1.636zM256 330.667c-41.167 0-74.667-33.5-74.667-74.667s33.5-74.667 74.667-74.667 74.667 33.5 74.667 74.667-33.5 74.667-74.667 74.667z"/></symbol><symbol viewBox="0 0 479.058 479.058" id="email" xmlns="http://www.w3.org/2000/svg"><path d="M434.146 59.882H44.912C20.146 59.882 0 80.028 0 104.794v269.47c0 24.766 20.146 44.912 44.912 44.912h389.234c24.766 0 44.912-20.146 44.912-44.912v-269.47c0-24.766-20.146-44.912-44.912-44.912zm0 29.941c2.034 0 3.969.422 5.738 1.159L239.529 264.631 39.173 90.982a14.902 14.902 0 0 1 5.738-1.159zm0 299.411H44.912c-8.26 0-14.971-6.71-14.971-14.971V122.615l199.778 173.141c2.822 2.441 6.316 3.655 9.81 3.655s6.988-1.213 9.81-3.655l199.778-173.141v251.649c-.001 8.26-6.711 14.97-14.971 14.97z"/></symbol><symbol viewBox="0 -10 490.667 490" id="enter" xmlns="http://www.w3.org/2000/svg"><path d="M325.332 251H16c-8.832 0-16-7.168-16-16s7.168-16 16-16h309.332c8.832 0 16 7.168 16 16s-7.168 16-16 16zm0 0"/><path d="M240 336.332c-4.098 0-8.191-1.555-11.309-4.691-6.25-6.25-6.25-16.383 0-22.637l74.028-74.024-74.028-74.027c-6.25-6.25-6.25-16.387 0-22.637 6.254-6.25 16.387-6.25 22.637 0l85.332 85.336c6.25 6.25 6.25 16.383 0 22.633l-85.332 85.332A15.88 15.88 0 0 1 240 336.332zm0 0"/><path d="M256 469.668c-97.09 0-182.805-58.41-218.41-148.824-3.242-8.192.808-17.492 9.023-20.735 8.192-3.199 17.516.79 20.758 9.047C98.113 387.215 172.161 437.668 256 437.668c111.742 0 202.668-90.926 202.668-202.668S367.742 32.332 256 32.332c-83.84 0-157.887 50.453-188.629 128.512-3.266 8.258-12.566 12.246-20.758 9.047-8.215-3.243-12.265-12.543-9.023-20.735C73.195 58.742 158.91.332 256 .332 385.387.332 490.668 105.613 490.668 235S385.387 469.668 256 469.668zm0 0"/></symbol><symbol viewBox="0 -10 490.667 490" id="logout" xmlns="http://www.w3.org/2000/svg"><path d="M474.668 251H165.332c-8.832 0-16-7.168-16-16s7.168-16 16-16h309.336c8.832 0 16 7.168 16 16s-7.168 16-16 16zm0 0"/><path d="M250.668 336.332c-4.098 0-8.191-1.555-11.309-4.691l-85.332-85.332c-6.25-6.254-6.25-16.387 0-22.637l85.332-85.332c6.25-6.25 16.383-6.25 22.637 0 6.25 6.25 6.25 16.383 0 22.633L187.97 235l74.027 74.027c6.25 6.25 6.25 16.383 0 22.633a16.02 16.02 0 0 1-11.328 4.672zm0 0"/><path d="M234.668 469.668C105.281 469.668 0 364.387 0 235S105.281.332 234.668.332c97.086 0 182.805 58.41 218.41 148.824 3.242 8.211-.812 17.492-9.023 20.754-8.215 3.203-17.496-.789-20.758-9.043-30.742-78.082-104.79-128.535-188.629-128.535C122.922 32.332 32 123.258 32 235s90.922 202.668 202.668 202.668c83.84 0 157.887-50.453 188.629-128.512 3.242-8.258 12.523-12.246 20.758-9.047 8.21 3.243 12.265 12.543 9.023 20.758-35.605 90.39-121.324 148.801-218.41 148.801zm0 0"/></symbol></svg>